<svg xmlns="http://www.w3.org/2000/svg" xmlns:xlink="http://www.w3.org/1999/xlink" version="1.1" width="256" height="256" viewBox="0 0 256 256" xml:space="preserve">
<desc>Created with Fabric.js 1.7.22</desc>
<defs>
</defs>
<g transform="translate(128 128) scale(0.72 0.72)" style="">
	<g style="stroke: none; stroke-width: 0; stroke-dasharray: none; stroke-linecap: butt; stroke-linejoin: miter; stroke-miterlimit: 10; fill: none; fill-rule: nonzero; opacity: 1;" transform="translate(-175.05 -175.05000000000004) scale(3.89 3.89)" >
	<path d="M 67.635 79.56 c -0.25 0 -0.501 -0.047 -0.741 -0.143 L 45 70.676 l -21.893 8.741 c -0.721 0.287 -1.542 0.132 -2.109 -0.397 c -0.566 -0.531 -0.775 -1.341 -0.535 -2.079 l 4.941 -15.179 L 1.339 53.339 C 0.555 53.064 0.021 52.333 0 51.501 c -0.021 -0.831 0.475 -1.588 1.245 -1.902 l 6.958 -2.834 l -5.895 -7.581 c -0.483 -0.621 -0.557 -1.468 -0.189 -2.163 s 1.113 -1.103 1.896 -1.061 l 9.029 0.578 l -2.067 -7.93 c -0.208 -0.796 0.094 -1.639 0.76 -2.123 c 0.667 -0.482 1.562 -0.51 2.254 -0.065 l 17.979 11.53 l -4.001 -27.375 c -0.115 -0.783 0.244 -1.561 0.915 -1.982 c 0.671 -0.421 1.527 -0.407 2.183 0.036 l 7.697 5.194 l 4.412 -9.814 c 0.323 -0.718 1.037 -1.18 1.824 -1.18 l 0 0 c 0.787 0 1.501 0.462 1.824 1.18 l 4.412 9.814 l 7.696 -5.194 c 0.657 -0.443 1.512 -0.457 2.184 -0.036 c 0.67 0.421 1.029 1.199 0.914 1.982 L 58.029 37.95 l 17.979 -11.53 c 0.694 -0.444 1.588 -0.418 2.255 0.065 c 0.666 0.483 0.968 1.326 0.761 2.123 l -2.067 7.93 l 9.029 -0.578 c 0.797 -0.049 1.528 0.365 1.896 1.061 c 0.368 0.695 0.294 1.542 -0.188 2.163 l -5.896 7.581 l 6.958 2.834 c 0.77 0.314 1.266 1.071 1.244 1.902 c -0.021 0.832 -0.554 1.563 -1.338 1.838 l -24.065 8.423 l 4.94 15.179 c 0.24 0.738 0.032 1.548 -0.534 2.079 C 68.625 79.373 68.134 79.56 67.635 79.56 z" style="stroke: none; stroke-width: 1; stroke-dasharray: none; stroke-linecap: butt; stroke-linejoin: miter; stroke-miterlimit: 10; fill: rgb(186,23,23); fill-rule: nonzero; opacity: 1;" transform=" matrix(1 0 0 1 0 0) " stroke-linecap="round" />
	<path d="M 45 87.171 c -1.104 0 -2 -0.896 -2 -2 V 29.454 c 0 -1.104 0.896 -2 2 -2 s 2 0.896 2 2 v 55.717 C 47 86.275 46.104 87.171 45 87.171 z" style="stroke: none; stroke-width: 1; stroke-dasharray: none; stroke-linecap: butt; stroke-linejoin: miter; stroke-miterlimit: 10; fill: rgb(140,17,17); fill-rule: nonzero; opacity: 1;" transform=" matrix(1 0 0 1 0 0) " stroke-linecap="round" />
	<path d="M 45 59.313 c -0.291 0 -0.582 -0.063 -0.852 -0.19 L 22.648 49 c -0.999 -0.471 -1.428 -1.662 -0.958 -2.661 s 1.662 -1.428 2.662 -0.958 L 45 55.102 l 20.648 -9.721 c 0.996 -0.468 2.19 -0.042 2.661 0.958 c 0.471 0.999 0.042 2.19 -0.958 2.661 l -21.5 10.122 C 45.582 59.249 45.291 59.313 45 59.313 z" style="stroke: none; stroke-width: 1; stroke-dasharray: none; stroke-linecap: butt; stroke-linejoin: miter; stroke-miterlimit: 10; fill: rgb(140,17,17); fill-rule: nonzero; opacity: 1;" transform=" matrix(1 0 0 1 0 0) " stroke-linecap="round" />
</g>
</g>
</svg>